PathFileType	4	(X/Y/Z)	Kaydara	
DataRate	CameraRate	NumFrames	NumMarkers	Units	OrigDataRate	OrigDataStartFrame	OrigNumFrames	
240.00	240.00	4	72	mm	240.00	134	355	
Frame#	Time	Hips			RightUpLeg			RightLeg			RightFoot			RightFoot_End			LeftUpLeg			LeftLeg			LeftFoot			LeftFoot_End			Spine			Spine1			Spine2			Spine3			Neck			Head			Head_End			RightShoulder			RightArm			RightForeArm			RightHand			RightHandThumb1			RightHandThumb2			RightHandThumb3			RightHandThumb3_End			RightInHandIndex			RightHandIndex1			RightHandIndex2			RightHandIndex3			RightHandIndex3_End			RightInHandMiddle			RightHandMiddle1			RightHandMiddle2			RightHandMiddle3			RightHandMiddle3_End			RightInHandRing			RightHandRing1			RightHandRing2			RightHandRing3			RightHandRing3_End			RightInHandPinky			RightHandPinky1			RightHandPinky2			RightHandPinky3			RightHandPinky3_End			LeftShoulder			LeftArm			LeftForeArm			LeftHand			LeftHandThumb1			LeftHandThumb2			LeftHandThumb3			LeftHandThumb3_End			LeftInHandIndex			LeftHandIndex1			LeftHandIndex2			LeftHandIndex3			LeftHandIndex3_End			LeftInHandMiddle			LeftHandMiddle1			LeftHandMiddle2			LeftHandMiddle3			LeftHandMiddle3_End			LeftInHandRing			LeftHandRing1			LeftHandRing2			LeftHandRing3			LeftHandRing3_End			LeftInHandPinky			LeftHandPinky1			LeftHandPinky2			LeftHandPinky3			LeftHandPinky3_End			
		X1	Y1	Z1	X2	Y2	Z2	X3	Y3	Z3	X4	Y4	Z4	X5	Y5	Z5	X6	Y6	Z6	X7	Y7	Z7	X8	Y8	Z8	X9	Y9	Z9	X10	Y10	Z10	X11	Y11	Z11	X12	Y12	Z12	X13	Y13	Z13	X14	Y14	Z14	X15	Y15	Z15	X16	Y16	Z16	X17	Y17	Z17	X18	Y18	Z18	X19	Y19	Z19	X20	Y20	Z20	X21	Y21	Z21	X22	Y22	Z22	X23	Y23	Z23	X24	Y24	Z24	X25	Y25	Z25	X26	Y26	Z26	X27	Y27	Z27	X28	Y28	Z28	X29	Y29	Z29	X30	Y30	Z30	X31	Y31	Z31	X32	Y32	Z32	X33	Y33	Z33	X34	Y34	Z34	X35	Y35	Z35	X36	Y36	Z36	X37	Y37	Z37	X38	Y38	Z38	X39	Y39	Z39	X40	Y40	Z40	X41	Y41	Z41	X42	Y42	Z42	X43	Y43	Z43	X44	Y44	Z44	X45	Y45	Z45	X46	Y46	Z46	X47	Y47	Z47	X48	Y48	Z48	X49	Y49	Z49	X50	Y50	Z50	X51	Y51	Z51	X52	Y52	Z52	X53	Y53	Z53	X54	Y54	Z54	X55	Y55	Z55	X56	Y56	Z56	X57	Y57	Z57	X58	Y58	Z58	X59	Y59	Z59	X60	Y60	Z60	X61	Y61	Z61	X62	Y62	Z62	X63	Y63	Z63	X64	Y64	Z64	X65	Y65	Z65	X66	Y66	Z66	X67	Y67	Z67	X68	Y68	Z68	X69	Y69	Z69	X70	Y70	Z70	X71	Y71	Z71	X72	Y72	Z72	

134	0.554	2921.0129	906.651	56.2195	2986.2997849619333	886.2837302567585	-1.6503109123123894	2907.435140295163	483.5203313875499	-82.95445602271354	2915.7411013309297	104.96916909483068	-165.9951895838331	2841.103639630158	28.43467922786158	-7.559500738712573	2864.0906682475484	898.4223380663834	125.70052760627121	2802.4886385776745	495.5527836086861	222.34522394870845	2753.292071784629	64.43167871931443	296.1868249300181	2622.8066032666397	-12.999685354454348	180.07643830968607	2881.497132955797	1034.4644668710896	5.797644815812011	2833.2814689200995	1102.709927897599	-43.23239000023146	2778.1439042197176	1168.081502951242	-96.58326289828359	2718.5330256587677	1221.0889861189894	-151.363137267009	2654.310678227447	1277.8055715365356	-209.21195976101978	2594.6470334770147	1329.3098068654056	-260.97486141895973	2474.628271064491	1422.140999796528	-309.9186482836215	2694.925979632025	1258.3153514680598	-211.42016042049718	2746.7555824091774	1247.3370265615556	-316.01175457828185	2753.186030430724	994.945549478397	-299.1332037987223	2788.918908083043	806.0767762387115	-372.3319578249644	2794.240946259216	800.6015983951838	-386.5123946690565	2785.259609509258	793.8273102569326	-399.2776487769151	2779.161596216962	786.8906205447819	-407.17246307051846	2774.2118982933926	779.2094505255869	-412.90291005129586	2796.9103225315944	791.380545286602	-384.2937482583071	2802.6886157004997	763.9983642881422	-398.6820242513704	2798.057653338425	749.0236531741633	-408.44483005651307	2789.853508677846	745.8861261388583	-414.07109444920246	2779.471015062937	747.4525606659631	-418.42894854693117	2796.723844998472	786.4920465161085	-381.0750772754284	2802.261420916129	757.1389315906191	-393.3680575001426	2797.1539684521395	740.2474340168428	-403.54953912312686	2787.2299669617637	736.1976774735726	-410.1110729894855	2775.8569889139567	737.7830941547426	-414.7693204117484	2796.534673528867	783.6756824732262	-378.43281621252237	2801.596624141785	754.7450121209831	-387.15288187464466	2797.0798753354693	739.5059659025146	-395.5256351803738	2787.4728190698584	735.3254551588974	-401.5884457261975	2776.7629689896357	736.6862148622091	-405.8421725741761	2795.440044515115	781.7065620895288	-374.979306149253	2799.7119503623994	753.7427292435888	-380.8491687493926	2795.970837318424	740.86091842425	-386.73339569903254	2788.903302575398	737.483205644151	-390.7588000738707	2779.381520879819	738.4996004787392	-394.2985280422136	2655.8721734727183	1260.2657707487092	-167.1788785811454	2602.636166442163	1212.6235600295431	-73.58782778940198	2699.4485355017778	1023.5666208455912	-184.47434695252704	2812.865714858966	856.2764007334173	-292.7334458259124	2799.269619021067	854.3757116942273	-311.82727740304756	2793.7830179701104	837.8846020529753	-340.52916655230734	2790.2455515915312	824.0395772992458	-360.2312060076841	2787.5389639087634	810.4781277443343	-376.4113169987601	2798.0601660962675	846.3522136124687	-311.8152422597009	2780.719845056666	819.7738474276533	-343.117350543401	2773.8764775650147	798.0031846154747	-368.8468569168995	2773.603990279284	786.6561798915457	-384.8130299036469	2776.0644611172615	778.7400159507828	-398.00808509451605	2799.6828170695926	840.7011408866708	-310.1355682693208	2783.6457926633534	811.7216699295832	-339.75704173427624	2776.4551871928634	787.3020205533752	-367.5148153596169	2776.2593206568085	773.2938814681976	-386.62470362287286	2779.0161181546023	764.4773804590744	-400.9882473789916	2801.217075047683	837.399430441038	-308.11438719156496	2788.0166837392626	808.5985730649852	-332.80212383644584	2782.0581972504815	786.6816581057792	-356.6243523123914	2782.0333075417166	772.8337226312128	-374.8600365339061	2784.7031349170607	764.3847821589832	-388.27188531995085	2803.918197140517	834.2653095915671	-305.1593315855816	2793.287159411791	805.9506331740178	-325.8712749119927	2789.0556724964654	787.5388631629907	-344.2601698625297	2789.2986587031955	777.0213813848954	-357.2289999320062	2791.8139833139744	769.2971543064189	-368.91843680360404
135	0.558	2921.0129	906.651	56.2195	2985.9885102560265	886.1635209164783	-1.7432844049426457	2907.1664152604576	483.3574105491896	-82.8428310735972	2915.9935082338297	104.93655461819158	-166.11413615208807	2841.3624409025165	28.37568016171592	-7.6885612643977055	2864.3905109581897	898.5392251596239	125.79305122649973	2802.852016910196	495.67797122982444	222.4990414696531	2753.4392260885193	64.56457106306733	296.1481163844204	2623.017262259827	-12.934011794859767	180.02009947149682	2881.5561767690597	1034.4834877802068	5.80406742254238	2833.341466544165	1102.7625757610963	-43.1774559491099	2778.2075305912144	1168.1831681394085	-96.46630187309145	2718.5909117206465	1221.2448503294966	-151.17260221747011	2654.3606335462864	1278.0153066557352	-208.94325227315815	2594.685423186139	1329.5658149486528	-260.63108234948584	2474.6175852555925	1422.346375163462	-309.5292004905447	2694.8869745412358	1258.4455461798811	-211.16379601077196	2746.460936463968	1247.3400239916766	-315.52300721420403	2752.827063218435	995.4089438925122	-298.4031823692723	2788.176161525813	806.9666571751214	-370.9620535572221	2793.5266407048084	801.6385967792403	-385.148738223683	2784.554692122407	794.88073574205	-397.8677166645556	2778.452827353534	787.951518988532	-405.72443894250665	2773.49102956813	780.2731855652315	-411.418110618506	2796.160120979083	792.4314835602071	-382.91302920991166	2801.893936387432	765.217233764402	-397.2483271964299	2797.2387484936653	750.2810749206653	-406.9561504007985	2789.035150422803	747.1147306234897	-412.54717752390144	2778.6636370035794	748.6217066816106	-416.87515460346384	2795.947251104498	787.5226293760574	-379.6793856740245	2801.4271680852307	758.3223217422943	-391.9126006726435	2796.289951010359	741.4695634196728	-402.0322592819987	2786.3650103581535	737.3834419552974	-408.5504039551157	2775.003270184526	738.9030248212747	-413.1755339700957	2795.7404238513172	784.6884013870682	-377.02803387937365	2800.7349487590413	755.8815187255759	-385.6870412853631	2796.188946549726	740.6725858448979	-394.0041359147006	2786.5792272022463	736.4550594158632	-400.0241525918041	2775.8791097770973	737.7529992076859	-404.246293945374	2794.6278768008365	782.6875038490581	-373.56451685403016	2798.8263927080643	754.8203644816535	-379.37264514804957	2795.0569847644097	741.9564250949009	-385.2097995542407	2787.9851512483287	738.5486927014517	-389.2027792225708	2778.470635124759	739.5077015773427	-392.713831299604	2656.0214029300805	1260.5206183741589	-166.95315758179663	2603.115882161753	1213.2352284199108	-73.39983250596441	2699.774809982296	1024.3841232416119	-184.02124536637132	2812.380528137692	857.4688730835359	-291.7480900278884	2798.719087364566	855.7781243275083	-310.79976327228434	2793.2085322604717	839.4853636489065	-339.4244013940605	2789.6695118904286	825.7688615230576	-359.0709818848284	2786.974570226895	812.3063364134048	-375.2034386580667	2797.557865728313	847.7410216863551	-310.7801346971958	2780.247515093532	821.4202655956749	-341.9903850244084	2773.425020327	799.8204707918458	-367.6440532413015	2773.150870478977	788.5629185990565	-383.5650199817262	2775.600090623083	780.7094773266481	-396.7239670710185	2799.220619919141	842.0544519606933	-309.09857257713486	2783.2345191069144	813.3070490309125	-338.6294330991212	2776.0718846870714	789.0683207333959	-366.3044861800289	2775.876504117027	775.1654489869009	-385.3598510590374	2778.6222036671707	766.4162885053981	-399.68389402757913	2800.7825504566354	838.7211637764685	-307.07849416960045	2787.652125307368	810.1010888005372	-331.68624890981175	2781.7232455362946	788.3358466083681	-355.43655428150265	2781.7016014590495	774.5862534778244	-373.6197399512476	2784.362309029684	766.1991162026991	-386.9944923957643	2803.5138740395228	835.5426019916821	-304.126646304257	2792.965988743701	807.3666729709394	-324.7674867133938	2788.766059849768	789.0661782871289	-343.0994126274399	2789.0152105778293	778.6155040256507	-356.03025132577983	2791.524642159882	770.943190417008	-367.68700072851726
136	0.563	2921.0129	906.651	56.2195	2985.673894316057	886.0391198476669	-1.8385447059633355	2906.8830985307377	483.1915653901507	-82.73049803707457	2916.241060742041	104.90030759456648	-166.228817539984	2841.6157568791245	28.312912323213865	-7.81371989133856	2864.692874036778	898.660117396877	125.88794711021107	2803.2235606222584	495.80574226985124	222.65278065625418	2753.584093846699	64.69829225652855	296.09774167406175	2623.2254637862607	-12.866027897014966	179.95144975099495	2881.6189513824756	1034.5034707134341	5.810194620361481	2833.403761253634	1102.8155194500207	-43.12233370111345	2778.2716846453777	1168.2844995841147	-96.34820667443785	2718.6467643617448	1221.3992676196804	-150.97934097189835	2654.4059224035773	1278.2225171952423	-208.67005689304298	2594.7163776477473	1329.8181602476645	-260.28093377028796	2474.608536657233	1422.5583843426055	-309.13485956888644	2694.842258972131	1258.5728736385763	-210.90351481653627	2746.1453934548094	1247.3249712020522	-315.0421342475173	2752.47036004961	995.8639616984754	-297.6542206527971	2787.4400928184186	807.8503978477823	-369.6058247708367	2792.8238211944035	802.6663440549067	-383.79923735531264	2783.866016455691	795.9162606017834	-396.47580133318144	2777.7623056816	788.9879090575506	-404.2972104044067	2772.788962600478	781.3064034255733	-409.9565002161187	2795.41678820243	793.4710912821724	-381.54652618461535	2801.1032010952968	766.4133685094064	-395.8313291245341	2796.4237605167477	751.5062182000663	-405.487529699504	2788.2230854212744	748.3056014459471	-411.0460385127285	2777.866133379788	749.7489268427937	-415.3468142368479	2795.174170584051	788.540612543578	-378.2981454921336	2800.5917604200463	759.4813030006136	-390.4741437936013	2795.424318203026	742.6567372112345	-400.5356710085331	2785.5010987891474	738.5276059498113	-407.0137188659673	2774.154414615634	739.9767366921326	-411.60866485696755	2794.947362007421	785.6879251627457	-375.6377904591939	2799.86817265107	756.9937598993068	-384.2380542477482	2795.2920830848007	741.805630872595	-392.502729498158	2785.6820370004184	737.5446172471869	-398.48313959739806	2774.995133260659	738.7753654859381	-402.67645916397737	2793.8145338790737	783.6548139888484	-372.1644173312695	2797.932335223333	755.8739762984976	-377.91297623486804	2794.1333174449214	743.0203192169504	-383.7056760103712	2787.058576098583	739.577781929363	-387.6685673481193	2777.5542290394255	740.4754949538118	-391.1533981824535	2656.1688555927517	1260.7740128369892	-166.72360319323423	2603.6025858629055	1213.8424086942453	-73.21179886092212	2700.072834608551	1025.2734292641314	-183.68554906725038	2811.858659717429	858.7098914391528	-290.8422748059706	2798.144672518572	857.2338219444438	-309.8466128391505	2792.6267781756487	841.1361939912181	-338.3825367825117	2789.0971578409444	827.5444124284419	-357.96538343991995	2786.422466766507	814.17630615464	-374.0430377639994	2797.030268080414	849.1782911703724	-309.8183138240061	2779.766640789934	823.1077451940199	-340.9241379218356	2772.9787003327283	801.6718468650707	-366.4908452742583	2772.711706578157	790.5002597031878	-382.35959932416677	2775.1571861761913	782.707225556726	-395.4765777585166	2798.730961948112	843.4521471017918	-308.134393746392	2782.810954153302	814.9273894748587	-337.5621291446709	2775.6908829532304	790.8614586173293	-365.1423006007787	2775.5064658574743	777.0593988432256	-384.13467747765475	2778.249206316444	768.3749247595196	-398.41280133265536	2800.3185878058725	840.0845960757036	-306.11542660576634	2787.26994512415	811.6345480319892	-330.63205121354633	2781.3830223893287	790.0133850673752	-354.29982844239305	2781.374534551362	776.3575643573556	-372.4223480815424	2784.0336820928164	768.0296056877567	-385.7539678329401	2803.0775158844435	836.8586595398049	-303.16700504556957	2792.621954017965	808.8098244699489	-323.7267144080939	2788.4628466927834	790.6137713576936	-341.9932194024237	2788.725087961712	780.2262066824358	-354.8801287833428	2791.235148818216	772.6032719180187	-366.49885492172973
137	0.567	2921.0129	906.651	56.2195	2985.3557039203965	885.9097450093712	-1.9363382851801707	2906.584061990262	483.0224012376501	-82.6186232976616	2916.4831988381593	104.86003190105548	-166.34041604827252	2841.8631856083375	28.246139120281722	-7.936010150567841	2864.997855395625	898.7858119864818	125.98559511205593	2803.6033594884752	495.937384270976	222.80885885673104	2753.7254169454473	64.83323787976597	296.03371711174367	2623.4304665486848	-12.796280288091936	179.86850703890417	2881.6860632816324	1034.5243696128582	5.815441581977842	2833.4691330226246	1102.8686243446923	-43.06793154351938	2778.337219763885	1168.3850783674388	-96.23030581999107	2718.7015876686764	1221.5515148907386	-150.78513653433257	2654.447725036439	1278.4261917704982	-208.39463128509158	2594.7416622325086	1330.065816713216	-259.92727646437146	2474.602679892688	1422.7761825566834	-308.7377407753551	2694.793155949259	1258.6965411373385	-210.64141248622278	2745.812223830996	1247.2967286092344	-314.56796798200895	2752.120823104462	996.3161283447173	-296.8783591999978	2786.7239288343717	808.7489365383144	-368.26837925309786	2792.145364325405	803.7067590297792	-382.4696759039561	2783.2065481150107	796.9582053282467	-395.1082876865391	2777.103218339113	790.025712445666	-402.897730040646	2772.1192058758907	782.336299612809	-408.5256324074302	2794.6937469650456	794.5209680244715	-380.20069321916935	2800.330698534388	767.6097784738477	-394.4397761286396	2795.627549025547	752.7238938105187	-404.04891582823603	2787.43231361219	749.4850675380264	-409.57785729488864	2777.0934754925556	750.862075457506	-413.8539518545516	2794.4184288618208	789.5673913421289	-376.9381180339178	2799.7700856671854	760.6385356073845	-389.06184995436644	2794.5726311014932	743.8335503073225	-399.0702813745667	2784.6539867991432	739.6565813169798	-405.51182036361513	2773.3261571009434	741.0323034955514	-410.0793532685175	2794.16957729593	786.6954603423928	-374.26901124062766	2799.011570831274	758.1038869939246	-382.8151567738677	2794.4051964632536	742.9289055739071	-391.03185280116855	2784.797372899168	738.6196681978319	-396.9761443516978	2774.1271579464187	739.780407537528	-401.1432604938386	2793.014372002257	784.6295076169303	-370.7860127515217	2797.0453916824317	756.9253003278595	-376.4793546587364	2793.216031153547	744.07560457709	-382.231215285743	2786.1399632775133	740.5947157129928	-386.1665913850484	2776.6487036846606	741.4285843336312	-389.62753686850596	2656.3154385675216	1261.0249148556586	-166.492315554995	2604.096900273731	1214.444405852048	-73.0258509989228	2700.3297364778086	1026.1992078000037	-183.44997413705437	2811.2947174344113	859.9634320910684	-289.9974314638781	2797.5434558274515	858.7054526435671	-308.94958402161	2792.035562871266	842.7981259872892	-337.38476796502874	2788.5264994585204	829.3262472836085	-356.89533975327413	2785.8805737758566	816.0473009153073	-372.9109289436062	2796.4737121636635	850.6269837640092	-308.91216040251186	2779.274583441897	824.7979101194422	-339.9022909267296	2772.5349726856816	803.517768819361	-365.3710600210349	2772.283840098409	792.4278179972315	-381.1800647209305	2774.73287934381	784.6921016295968	-394.248356603766	2798.209294091832	844.8575201806557	-307.2256730327294	2782.371065715838	816.5448599113455	-336.5391810968436	2775.308130923799	792.6423763176772	-364.01249757052074	2775.144959667153	778.9356812844001	-382.93279617317626	2777.8926218346396	770.3124038787804	-397.15765128472765	2799.8199890381984	841.4532927718212	-305.2079853022265	2786.86485817882	813.1617519698368	-329.6237594432802	2781.0321015009777	791.676056309871	-353.1985946856378	2781.0464259380783	778.1085082705205	-371.2516919332381	2783.711299227426	769.836330633177	-384.5332739311705	2802.6031115496476	838.177377099695	-302.26328560414584	2792.2484785526467	810.2434936389466	-322.7332228700066	2788.1391487933	792.1443152277802	-340.9260447206162	2788.4211269314233	781.8155238292295	-353.76267507104933	2790.938042527474	774.238771523575	-365.33728276437563
